<?xml version="1.0" encoding="utf-8"?>
<!-- Generator: Adobe Illustrator 16.0.0, SVG Export Plug-In . SVG Version: 6.00 Build 0)  -->
<!DOCTYPE svg PUBLIC "-//W3C//DTD SVG 1.1//EN" "http://www.w3.org/Graphics/SVG/1.1/DTD/svg11.dtd">
<svg version="1.1" id="Layer_1" xmlns="http://www.w3.org/2000/svg" xmlns:xlink="http://www.w3.org/1999/xlink" x="0px" y="0px"
	 width="100px" height="100px" viewBox="0 0 100 100" enable-background="new 0 0 100 100" xml:space="preserve">
<g>
	<g>
		<g>
			<path fill="#231F20" d="M76.572,65.992c-0.413,0-0.818-0.151-1.152-0.453L37.431,30.271c-0.683-0.64-0.723-1.708-0.087-2.393
				c0.636-0.685,1.708-0.725,2.391-0.087l37.989,35.271c0.691,0.636,0.724,1.7,0.088,2.391
				C77.485,65.81,77.024,65.992,76.572,65.992z"/>
		</g>
		<g>
			<path fill="#231F20" d="M17.943,66.56c-0.429,0-0.842-0.162-1.176-0.477c-0.675-0.647-0.691-1.72-0.04-2.395L70.407,8.66
				c0.644-0.675,1.716-0.693,2.384-0.042c0.675,0.649,0.698,1.72,0.047,2.391L19.159,66.044
				C18.833,66.385,18.388,66.56,17.943,66.56z"/>
		</g>
		<g>
			<path fill="#231F20" d="M45.518,91.858c-0.938,0-1.684-0.755-1.684-1.692v-5.108H27.826c-0.93,0-1.692-0.758-1.692-1.691V61.476
				c0-0.934,0.763-1.692,1.692-1.692c0.938,0,1.692,0.759,1.692,1.692V81.67h14.316V61.702c0-0.938,0.747-1.692,1.684-1.692h22.458
				c0.93,0,1.691,0.755,1.691,1.692v21.664c0,0.934-0.762,1.691-1.691,1.691H47.21v5.108C47.21,91.104,46.456,91.858,45.518,91.858z
				 M47.21,81.67h19.066V63.395H47.21V81.67z"/>
		</g>
	</g>
	<rect x="47.21" y="63.395" fill="#00ADEE" width="19.066" height="18.275"/>
</g>
</svg>
